<svg width="50" height="50" viewBox="0 0 50 50" fill="none" xmlns="http://www.w3.org/2000/svg" aria-label="Richpanel Logo">
                    <g clip-path="url(#clip0_482_8)">
                        <path fill-rule="evenodd" clip-rule="evenodd" d="M30.6254 11.7686C30.6187 12.6301 29.9237 13.3165 29.0684 13.3098C28.4135 13.303 27.8321 12.8858 27.6183 12.2599C26.9032 10.8668 25.1992 10.3217 23.8226 11.0485C22.4393 11.7686 21.898 13.4847 22.6197 14.8711C23.1075 15.8133 24.0765 16.4055 25.1323 16.4055C25.6603 16.4055 26.1748 16.2575 26.6226 15.9748C26.7094 15.9008 26.803 15.8335 26.9032 15.7729C26.9366 15.746 26.9701 15.7191 27.0035 15.6854L27.0168 15.7123C27.7853 15.3557 28.7008 15.6922 29.055 16.4661C29.4092 17.24 29.0751 18.162 28.3066 18.5187C28.2932 18.5254 28.2798 18.5322 28.2665 18.5389L28.2798 18.5725C25.4999 20.3223 21.8445 19.4743 20.107 16.6747C20.087 16.6411 20.067 16.6074 20.0469 16.567C16.5185 18.2899 14.1061 21.7087 13.6517 25.6322C13.6517 25.6322 13.3777 27.1733 11.7806 27.1733C10.7915 27.1801 9.98964 26.3725 9.98296 25.3765C9.98296 25.0871 10.0565 23.9968 10.1768 23.7546C10.992 18.5052 14.5071 14.7971 19.265 12.9531C19.646 9.68236 22.5863 7.34709 25.834 7.73069C27.8722 7.97297 29.6364 9.25838 30.5051 11.1293L30.4984 11.136C30.5786 11.3245 30.6254 11.5465 30.6254 11.7686ZM35.2163 39.0314C34.4813 38.594 34.234 37.6383 34.6751 36.8913C35.0092 36.326 35.6574 36.0299 36.2989 36.151C37.856 36.2318 39.1791 35.0204 39.2593 33.4523C39.3395 31.8843 38.1366 30.5517 36.5796 30.471C35.0225 30.3902 33.6994 31.6016 33.6192 33.1697C33.6125 33.2504 33.6125 33.3312 33.6192 33.4119C33.6459 33.5264 33.6526 33.6408 33.6526 33.7552C33.6593 33.7956 33.666 33.8427 33.6727 33.883H33.6393C33.6192 34.1051 33.5457 34.3138 33.4388 34.5089C33.0245 35.2492 32.0956 35.5117 31.3605 35.0944C30.8192 34.7848 30.5185 34.1792 30.592 33.56L30.5586 33.5533C30.445 30.2489 33.0111 27.4762 36.2922 27.355C36.3257 27.355 36.3591 27.355 36.3925 27.355C36.6865 23.4113 34.9557 19.5955 31.8082 17.2333C31.8082 17.2333 30.6254 16.2238 31.4273 14.824C31.9152 13.9626 33.0044 13.6597 33.8598 14.1443C33.8598 14.1443 33.8598 14.1443 33.8665 14.1443C34.1137 14.2856 35.0159 14.898 35.1629 15.1268C39.2593 18.4649 40.6827 23.3911 39.8875 28.4722C42.507 30.4508 43.0416 34.1993 41.077 36.8442C39.854 38.4863 37.8693 39.3881 35.8378 39.2131V39.2064C35.6173 39.2064 35.4101 39.1391 35.2163 39.0314ZM9.28129 29.5019C10.0297 29.0779 10.972 29.3471 11.3863 30.1008C11.7071 30.6729 11.6336 31.393 11.2059 31.8843C10.6579 32.7793 10.6445 33.9032 11.1658 34.8118C11.941 36.1577 13.6517 36.6154 14.9882 35.8347C16.3247 35.054 16.7791 33.3312 16.004 31.9852C15.7433 31.5276 15.3557 31.1574 14.8946 30.9084C14.7877 30.8748 14.6808 30.8209 14.5806 30.7671C14.5405 30.7536 14.5004 30.7335 14.4603 30.72L14.4803 30.6931C13.7853 30.1883 13.6316 29.2125 14.1328 28.5126C14.2598 28.3376 14.4135 28.1896 14.6006 28.0819C15.1285 27.7723 15.7968 27.8127 16.2846 28.1896L16.3047 28.1626C19.2049 29.724 20.3008 33.3581 18.7505 36.2856C18.7371 36.3125 18.7238 36.3394 18.7037 36.3664C21.9381 38.594 26.0813 38.991 29.6765 37.423C29.6765 37.423 31.1333 36.8913 31.9352 38.2911C32.4364 39.1525 32.149 40.2562 31.2937 40.761C31.0464 40.9023 30.0708 41.3869 29.8035 41.4003C24.8918 43.3116 19.9534 42.0935 15.9906 38.8564C12.9767 40.1486 9.49513 38.7353 8.21208 35.7001C7.41017 33.809 7.63737 31.6353 8.80682 29.9461H8.81351C8.92711 29.7644 9.08749 29.6163 9.28129 29.5019Z" fill="black"></path>
                    </g>
                    <defs>
                        <clipPath id="clip0_482_8">
                            <rect width="50" height="50" fill="none"></rect>
                        </clipPath>
                    </defs>
                </svg>