<svg xmlns="http://www.w3.org/2000/svg" xmlns:xlink="http://www.w3.org/1999/xlink" width="44" height="44.181" viewBox="0 0 44 44.181" fill="white">
            <defs>
                <filter id="a" x="0" y="0" width="44" height="44.181" filterUnits="userSpaceOnUse">
                    <feOffset dx="1" dy="1" input="SourceAlpha"></feOffset>
                    <feGaussianBlur stdDeviation="1.5" result="b"></feGaussianBlur>
                    <feFlood flood-opacity="0.4"></feFlood>
                    <feComposite operator="in" in2="b"></feComposite>
                    <feComposite in="SourceGraphic"></feComposite>
                </filter>
            </defs>
            <g transform="translate(-1020.5 -579.5)">
                <g transform="translate(1024 583)">
                    <g transform="matrix(1, 0, 0, 1, -3.5, -3.5)">
                        <path class="a" d="M45.261,36.182a17.433,17.433,0,1,1,1.714,29.6l-9.276,2.4,2.443-8.944c.05-.108-.025-.2-.083-.282A17.392,17.392,0,0,1,37.99,48.19a17.64,17.64,0,0,1,7.247-12.009m4.116,1.044a14.543,14.543,0,0,0-6.642,6.021,14.306,14.306,0,0,0-1.9,6.816,14.469,14.469,0,0,0,2.344,8.282c.083.149.232.306.166.5l-1.408,5.168c1.764-.447,3.528-.928,5.3-1.375.224-.083.414.1.6.2a14.493,14.493,0,0,0,10.187,1.83,14.328,14.328,0,0,0,5.681-2.443,14.449,14.449,0,0,0,.936-22.8,14.419,14.419,0,0,0-15.247-2.162Z" transform="translate(-34.2 -29.5)"></path>
                    </g>
                </g>
                <path class="a" d="M11950.11-4981.888H11947a13.91,13.91,0,0,1-9.9-4.1,13.914,13.914,0,0,1-4.1-9.9V-4999a13.914,13.914,0,0,1,4.1-9.9,13.91,13.91,0,0,1,9.9-4.1h3.11a13.911,13.911,0,0,1,9.9,4.1,13.907,13.907,0,0,1,4.1,9.9v3.111a13.907,13.907,0,0,1-4.1,9.9A13.911,13.911,0,0,1,11950.11-4981.888ZM11942.5-4996a1.5,1.5,0,0,0-1.5,1.5,1.5,1.5,0,0,0,1.5,1.5h13a1.5,1.5,0,0,0,1.5-1.5,1.5,1.5,0,0,0-1.5-1.5Zm0-5a1.5,1.5,0,0,0-1.5,1.5,1.5,1.5,0,0,0,1.5,1.5h8a1.5,1.5,0,0,0,1.5-1.5,1.5,1.5,0,0,0-1.5-1.5Z" transform="translate(-10907 5598)"></path>
                <rect class="a" width="6" height="6" transform="translate(1028 609)"></rect>
            </g>
        </svg>