<svg width="100" height="100" viewBox="0 0 100 100" fill="none" xmlns="http://www.w3.org/2000/svg"><path d="M44.584 21H42.834V14C42.834 6.279 36.555 0 28.834 0C21.113 0 14.834 6.279 14.834 14V21H13.084C10.1907 21 7.83398 23.3543 7.83398 26.25V50.75C7.83398 53.6457 10.1907 56 13.084 56H44.584C47.4773 56 49.834 53.6457 49.834 50.75V26.25C49.834 23.3543 47.4773 21 44.584 21ZM19.5007 14C19.5007 8.85267 23.6867 4.66667 28.834 4.66667C33.9813 4.66667 38.1673 8.85267 38.1673 14V21H19.5007V14ZM31.1673 39.018V44.3333C31.1673 45.6213 30.1243 46.6667 28.834 46.6667C27.5436 46.6667 26.5007 45.6213 26.5007 44.3333V39.018C25.1123 38.2083 24.1673 36.7197 24.1673 35C24.1673 32.4263 26.2603 30.3333 28.834 30.3333C31.4076 30.3333 33.5007 32.4263 33.5007 35C33.5007 36.7197 32.5557 38.2083 31.1673 39.018Z" fill="currentColor" transform="translate(21.5, 22)"></path></svg>