<svg xmlns="http://www.w3.org/2000/svg" viewBox="0 0 500 418.951" class="icon icon-cart" aria-hidden="true" focusable="false" fill="none" stroke="currentColor" stroke-linecap="round" stroke-linejoin="round" stroke-width="31.5" width="500" height="418.951">
      <path points="1.5 1.5 10.04 2.06 15.09 27.94 45.39 27.94 52.48 6.79 18.25 6.65" d="M13.894 13.894L92.997 19.081L139.774 258.8L420.433 258.8L486.106 62.894L169.044 61.597"></path><path cx="20.58" cy="39.74" r="3.99" d="M227.584 368.099A36.958 36.958 0 0 1 190.626 405.057A36.958 36.958 0 0 1 153.668 368.099A36.958 36.958 0 0 1 227.584 368.099z"></path><path cx="40.02" cy="39.74" r="3.99" d="M407.651 368.099A36.958 36.958 0 0 1 370.693 405.057A36.958 36.958 0 0 1 333.735 368.099A36.958 36.958 0 0 1 407.651 368.099z"></path><path points="45.42 35.75 14.49 35.75 17.21 27.94" d="M420.711 331.141L134.216 331.141L159.411 258.8"></path>
    </svg>